<svg xmlns="http://www.w3.org/2000/svg" width="15" height="21.961" viewBox="0 0 15 21.961">
  <g id="グループ_61" data-name="グループ 61" transform="translate(-99 -4533.039)">
    <g id="パス_4" data-name="パス 4" transform="translate(114 4548.039) rotate(180)" fill="#c0542d">
      <path d="M 7.5 14.50000381469727 C 3.64018988609314 14.50000381469727 0.5 11.35981369018555 0.5 7.500003814697266 C 0.5 6.537734031677246 0.984790027141571 4.545514106750488 3.294310092926025 0.5192738771438599 C 4.820290088653564 -2.140986204147339 6.563469886779785 -4.684505939483643 7.401199817657471 -5.906856060028076 C 7.454689502716064 -5.984904289245605 7.503103256225586 -6.055546760559082 7.546890735626221 -6.119519710540771 C 8.217453956604004 -5.210892200469971 9.64806079864502 -3.122424840927124 11.05737972259521 -0.7341061234474182 C 13.27738952636719 3.028053998947144 14.5 5.952313899993896 14.5 7.500003814697266 C 14.5 11.35981369018555 11.35980987548828 14.50000381469727 7.5 14.50000381469727 Z" stroke="none"/>
      <path d="M 7.556540012359619 -5.248703002929688 C 6.656476020812988 -3.931980133056641 5.102099418640137 -1.627388000488281 3.728030204772949 0.7680540084838867 C 1.47329044342041 4.698793888092041 1 6.598504066467285 1 7.500003814697266 C 1 11.08411407470703 3.915889739990234 14.00000381469727 7.5 14.00000381469727 C 11.08411026000977 14.00000381469727 14 11.08411407470703 14 7.500003814697266 C 14 6.053303718566895 12.82034015655518 3.250363826751709 10.67831993103027 -0.3924760818481445 C 9.518074035644531 -2.365660667419434 8.313714027404785 -4.173417091369629 7.556540012359619 -5.248703002929688 M 7.503446102142334 -6.961073875427246 C 7.68976354598999 -6.961073875427246 15 3.398314476013184 15 7.500003814697266 C 15 11.64213371276855 11.64213943481445 15.00000381469727 7.5 15.00000381469727 C 3.35785961151123 15.00000381469727 0 11.64213371276855 0 7.500003814697266 C 0 3.357863903045654 7.455160140991211 -6.749026298522949 7.5 -6.958005905151367 C 7.50043773651123 -6.960046768188477 7.501608371734619 -6.961073875427246 7.503446102142334 -6.961073875427246 Z" stroke="none" fill="#fff"/>
    </g>
    <g id="楕円形_3" data-name="楕円形 3" transform="translate(104 4539)" fill="#c0542d" stroke="#fff" stroke-width="1">
      <circle cx="2.5" cy="2.5" r="2.5" stroke="none"/>
      <circle cx="2.5" cy="2.5" r="2" fill="none"/>
    </g>
  </g>
</svg>